<svg xmlns="http://www.w3.org/2000/svg" xmlns:xlink="http://www.w3.org/1999/xlink" width="500" zoomAndPan="magnify" viewBox="0 0 375 374.999991" height="500" preserveAspectRatio="xMidYMid meet" version="1.0"><defs><g/><clipPath id="id1"><path d="M 10.617188 37.5 L 363 37.5 L 363 337.964844 L 10.617188 337.964844 Z M 10.617188 37.5 " clip-rule="nonzero"/></clipPath><clipPath id="id2"><path d="M 2.441406 129.375 L 372.59375 129.375 L 372.59375 236.71875 L 2.441406 236.71875 Z M 2.441406 129.375 " clip-rule="nonzero"/></clipPath></defs><g clip-path="url(#id1)"><path fill="rgb(75.689697%, 0%, 3.919983%)" d="M 186.792969 277.644531 L 312.023438 139.285156 L 282.316406 72.347656 L 91.269531 72.347656 L 61.566406 139.285156 Z M 10.730469 143.425781 L 57.734375 37.496094 L 315.851562 37.496094 L 362.859375 143.425781 L 186.792969 337.964844 L 10.730469 143.425781 " fill-opacity="1" fill-rule="nonzero"/></g><path fill="rgb(81.17981%, 13.328552%, 14.118958%)" d="M 57.574219 139.925781 L 89.070312 68.957031 L 284.519531 68.957031 L 316.011719 139.925781 L 186.792969 282.695312 Z M 313.652344 40.890625 L 59.933594 40.890625 L 14.714844 142.785156 L 186.792969 332.914062 L 358.871094 142.785156 L 313.652344 40.890625 " fill-opacity="1" fill-rule="nonzero"/><path fill="rgb(96.859741%, 87.449646%, 0%)" d="M 287.160156 64.886719 L 86.425781 64.886719 L 52.789062 140.695312 L 186.792969 288.757812 L 320.800781 140.695312 L 287.160156 64.886719 " fill-opacity="1" fill-rule="nonzero"/><path fill="rgb(99.21875%, 91.758728%, 6.669617%)" d="M 284.519531 68.957031 L 89.070312 68.957031 L 57.574219 139.925781 L 186.792969 282.695312 L 316.011719 139.925781 L 284.519531 68.957031 " fill-opacity="1" fill-rule="nonzero"/><g clip-path="url(#id2)"><path fill="rgb(100%, 100%, 100%)" d="M 345.894531 234.695312 C 294.003906 222.429688 240.71875 216.210938 187.519531 216.210938 C 134.320312 216.210938 81.039062 222.429688 29.144531 234.695312 L 22.578125 236.246094 L 2.441406 152.234375 L 9.054688 150.667969 C 67.503906 136.835938 127.546875 129.816406 187.519531 129.816406 C 247.492188 129.816406 307.535156 136.835938 365.984375 150.667969 L 372.597656 152.234375 L 352.460938 236.246094 L 345.894531 234.695312 " fill-opacity="1" fill-rule="nonzero"/></g><path fill="rgb(81.17981%, 13.328552%, 14.118958%)" d="M 10.613281 157.269531 C 16.269531 180.875 21.929688 204.484375 27.589844 228.09375 C 132.882812 203.207031 242.15625 203.207031 347.449219 228.09375 C 353.109375 204.484375 358.769531 180.875 364.425781 157.269531 C 248.007812 129.710938 127.03125 129.710938 10.613281 157.269531 " fill-opacity="1" fill-rule="nonzero"/><g fill="rgb(81.17981%, 13.328552%, 14.118958%)" fill-opacity="1"><g transform="translate(98.745023, 118.875571)"><g><path d="M 10 3.484375 C 7.945312 3.566406 6.066406 3.316406 4.359375 2.734375 C 2.660156 2.148438 1.273438 1.359375 0.203125 0.359375 C -0.859375 -0.640625 -1.53125 -1.8125 -1.8125 -3.15625 C -2.09375 -4.5 -1.847656 -5.875 -1.078125 -7.28125 C -0.0351562 -8.96875 2.046875 -9.472656 5.171875 -8.796875 C 7.546875 -8.304688 9.179688 -8.039062 10.078125 -8 C 10.984375 -7.96875 11.757812 -8.09375 12.40625 -8.375 C 15.332031 -9.332031 16.976562 -10.375 17.34375 -11.5 C 17.582031 -12.34375 17.054688 -13.328125 15.765625 -14.453125 C 15.242188 -14.929688 14.660156 -15.410156 14.015625 -15.890625 C 13.378906 -16.367188 12.84375 -16.851562 12.40625 -17.34375 C 10.394531 -18.820312 8.816406 -20.535156 7.671875 -22.484375 C 6.523438 -24.429688 6.050781 -26.546875 6.25 -28.828125 C 6.457031 -31.117188 6.84375 -33.015625 7.40625 -34.515625 C 7.96875 -36.023438 8.671875 -37.363281 9.515625 -38.53125 C 10.992188 -40.570312 12.921875 -42.238281 15.296875 -43.53125 C 18.023438 -44.9375 20.210938 -45.835938 21.859375 -46.234375 C 25.109375 -46.953125 28.398438 -47.015625 31.734375 -46.421875 C 32.847656 -46.210938 33.804688 -45.828125 34.609375 -45.265625 C 35.421875 -44.710938 36.226562 -44.132812 37.03125 -43.53125 C 38.425781 -42.125 38.765625 -40.695312 38.046875 -39.25 C 37.765625 -38.613281 37.320312 -38.09375 36.71875 -37.6875 C 36.125 -37.28125 35.484375 -37.0625 34.796875 -37.03125 C 34.878906 -35.945312 34.679688 -35.140625 34.203125 -34.609375 C 33.273438 -33.691406 31.664062 -33.09375 29.375 -32.8125 C 26.082031 -33.050781 23.859375 -32.867188 22.703125 -32.265625 C 21.335938 -31.546875 20.832031 -29.984375 21.1875 -27.578125 C 21.269531 -27.054688 21.601562 -26.515625 22.1875 -25.953125 C 22.769531 -25.390625 23.453125 -24.785156 24.234375 -24.140625 C 25.015625 -23.492188 25.835938 -22.769531 26.703125 -21.96875 C 27.566406 -21.164062 28.316406 -20.242188 28.953125 -19.203125 C 31.203125 -15.515625 31.023438 -11.203125 28.421875 -6.265625 C 26.492188 -2.566406 23.203125 0.203125 18.546875 2.046875 C 16.140625 3.003906 13.289062 3.484375 10 3.484375 Z M 10 3.484375 "/></g></g></g><g fill="rgb(81.17981%, 13.328552%, 14.118958%)" fill-opacity="1"><g transform="translate(131.970542, 118.875571)"><g><path d="M 20.65625 -43.59375 L 20.65625 -43.46875 C 20.65625 -43.425781 20.660156 -43.40625 20.671875 -43.40625 C 20.691406 -43.40625 20.703125 -43.382812 20.703125 -43.34375 L 20.703125 -43.21875 L 20.765625 -43.21875 L 21.125 -42.265625 C 21.53125 -41.097656 20.488281 -37.484375 18 -31.421875 C 15.351562 -24.960938 14.128906 -19.925781 14.328125 -16.3125 C 14.765625 -13.75 16.910156 -15.816406 20.765625 -22.515625 C 23.816406 -27.734375 26.769531 -33.453125 29.625 -39.671875 C 29.976562 -40.515625 30.351562 -41.382812 30.75 -42.28125 C 31.15625 -43.1875 31.660156 -43.941406 32.265625 -44.546875 C 33.585938 -45.992188 35.191406 -46.375 37.078125 -45.6875 C 37.722656 -46.457031 38.476562 -46.984375 39.34375 -47.265625 C 40.207031 -47.546875 41.03125 -47.601562 41.8125 -47.4375 C 42.59375 -47.28125 43.265625 -46.910156 43.828125 -46.328125 C 44.390625 -45.742188 44.691406 -44.972656 44.734375 -44.015625 C 44.847656 -43.203125 44.429688 -41.289062 43.484375 -38.28125 C 42.546875 -35.28125 41.675781 -32.535156 40.875 -30.046875 C 40.070312 -27.554688 39.25 -24.84375 38.40625 -21.90625 C 36.363281 -14.96875 34.738281 -8.425781 33.53125 -2.28125 C 33.488281 -1 32.9375 0.0625 31.875 0.90625 C 30.8125 1.75 29.628906 2.300781 28.328125 2.5625 C 27.023438 2.820312 25.789062 2.769531 24.625 2.40625 C 23.21875 2.007812 22.472656 1.003906 22.390625 -0.609375 C 22.390625 -1.046875 22.367188 -1.484375 22.328125 -1.921875 C 22.410156 -0.554688 21.429688 0.601562 19.390625 1.5625 C 18.828125 1.84375 18.300781 2.101562 17.8125 2.34375 C 15.007812 3.1875 12.0625 3.007812 8.96875 1.8125 C 7.519531 1.207031 6.222656 0.394531 5.078125 -0.625 C 3.941406 -1.65625 3.148438 -2.875 2.703125 -4.28125 C 1.304688 -8.769531 1.566406 -14.664062 3.484375 -21.96875 C 4.296875 -25.101562 5.28125 -28.15625 6.4375 -31.125 C 7.601562 -34.09375 8.457031 -36.238281 9 -37.5625 C 9.539062 -38.882812 9.929688 -39.796875 10.171875 -40.296875 C 10.410156 -40.804688 10.671875 -41.300781 10.953125 -41.78125 C 11.640625 -43.144531 12.222656 -44.066406 12.703125 -44.546875 L 13.421875 -45.21875 C 13.503906 -45.289062 13.582031 -45.335938 13.65625 -45.359375 C 13.738281 -45.378906 13.84375 -45.429688 13.96875 -45.515625 C 14.289062 -45.710938 14.628906 -45.851562 14.984375 -45.9375 L 15.828125 -46.109375 L 16.1875 -46.109375 C 17.351562 -46.273438 18.359375 -46.035156 19.203125 -45.390625 C 19.203125 -45.347656 19.242188 -45.328125 19.328125 -45.328125 L 19.8125 -44.90625 L 19.984375 -44.734375 L 20.171875 -44.484375 C 20.171875 -44.453125 20.179688 -44.4375 20.203125 -44.4375 C 20.222656 -44.4375 20.234375 -44.414062 20.234375 -44.375 L 20.28125 -44.3125 L 20.28125 -44.1875 C 20.320312 -44.1875 20.34375 -44.164062 20.34375 -44.125 L 20.34375 -44.0625 C 20.382812 -44.03125 20.425781 -44.015625 20.46875 -44.015625 L 20.46875 -43.953125 C 20.46875 -43.910156 20.476562 -43.890625 20.5 -43.890625 C 20.519531 -43.890625 20.53125 -43.878906 20.53125 -43.859375 C 20.53125 -43.835938 20.550781 -43.804688 20.59375 -43.765625 L 20.59375 -43.703125 C 20.59375 -43.660156 20.613281 -43.625 20.65625 -43.59375 Z M 22.28125 -3.484375 L 22.28125 -3.671875 C 22.238281 -3.628906 22.21875 -3.46875 22.21875 -3.1875 C 22.21875 -3.3125 22.238281 -3.394531 22.28125 -3.4375 Z M 22.28125 -3.484375 "/></g></g></g><g fill="rgb(81.17981%, 13.328552%, 14.118958%)" fill-opacity="1"><g transform="translate(173.201477, 118.875571)"><g><path d="M 30.890625 -12.890625 C 29.273438 -11.679688 27.59375 -10.804688 25.84375 -10.265625 C 24.101562 -9.722656 22.367188 -9.570312 20.640625 -9.8125 C 18.921875 -10.050781 17.4375 -10.796875 16.1875 -12.046875 C 15.070312 -8.472656 14.3125 -4.9375 13.90625 -1.4375 C 13.75 -0.800781 13.46875 -0.222656 13.0625 0.296875 C 12.34375 2.421875 10.757812 3.847656 8.3125 4.578125 C 5.90625 5.253906 3.65625 5.132812 1.5625 4.21875 C 0.601562 3.769531 -0.195312 3.125 -0.84375 2.28125 C -1.488281 1.445312 -1.8125 0.425781 -1.8125 -0.78125 C 0.957031 -10.375 3.628906 -18.238281 6.203125 -24.375 C 6.765625 -25.664062 7.210938 -26.710938 7.546875 -27.515625 C 7.890625 -28.316406 8.203125 -29 8.484375 -29.5625 C 8.765625 -30.125 9.015625 -30.613281 9.234375 -31.03125 C 9.460938 -31.457031 9.734375 -31.929688 10.046875 -32.453125 C 10.773438 -33.648438 11.609375 -35.0625 12.546875 -36.6875 C 13.492188 -38.3125 14.296875 -39.523438 14.953125 -40.328125 C 15.617188 -41.140625 16.320312 -41.832031 17.0625 -42.40625 C 17.8125 -42.988281 18.632812 -43.539062 19.53125 -44.0625 C 20.4375 -44.582031 21.570312 -45.265625 22.9375 -46.109375 C 24.300781 -46.953125 25.753906 -47.460938 27.296875 -47.640625 C 28.847656 -47.828125 30.328125 -47.703125 31.734375 -47.265625 C 34.703125 -46.335938 36.890625 -44.269531 38.296875 -41.0625 C 39.492188 -38.09375 39.691406 -34.097656 38.890625 -29.078125 C 37.648438 -21.410156 34.984375 -16.015625 30.890625 -12.890625 Z M 18.296875 -18.234375 C 21.585938 -18.960938 23.878906 -21.113281 25.171875 -24.6875 C 26.253906 -27.695312 26.472656 -31.109375 25.828125 -34.921875 C 24.898438 -33.347656 24.066406 -31.71875 23.328125 -30.03125 C 22.585938 -28.351562 21.914062 -26.851562 21.3125 -25.53125 C 19.988281 -22.5625 18.984375 -20.128906 18.296875 -18.234375 Z M 18.296875 -18.234375 "/></g></g></g><g fill="rgb(81.17981%, 13.328552%, 14.118958%)" fill-opacity="1"><g transform="translate(209.677302, 118.875571)"><g><path d="M 13.609375 -7.578125 C 15.929688 -7.335938 17.664062 -7.21875 18.8125 -7.21875 C 19.957031 -7.21875 21.691406 -7.378906 24.015625 -7.703125 C 24.742188 -7.460938 25.164062 -7.160156 25.28125 -6.796875 C 25.40625 -6.441406 25.445312 -6.070312 25.40625 -5.6875 C 25.363281 -5.3125 25.382812 -4.941406 25.46875 -4.578125 C 25.550781 -4.210938 25.929688 -3.910156 26.609375 -3.671875 C 26.972656 -3.546875 27.082031 -3.191406 26.9375 -2.609375 C 26.800781 -2.035156 26.472656 -1.40625 25.953125 -0.71875 C 24.617188 1 23.050781 2.203125 21.25 2.890625 C 18.363281 3.609375 16.097656 4.03125 14.453125 4.15625 C 11.722656 4.351562 8.75 4.253906 5.53125 3.859375 C 2 3.210938 0.296875 1.742188 0.421875 -0.546875 C 0.421875 -8.972656 2.265625 -17.441406 5.953125 -25.953125 C 7.160156 -28.710938 8.523438 -31.617188 10.046875 -34.671875 C 10.367188 -35.316406 10.5625 -36.039062 10.625 -36.84375 C 10.6875 -37.644531 10.738281 -38.425781 10.78125 -39.1875 C 10.820312 -39.957031 10.941406 -40.640625 11.140625 -41.234375 C 11.335938 -41.835938 11.757812 -42.257812 12.40625 -42.5 C 20.75 -45.832031 27.347656 -47.117188 32.203125 -46.359375 C 33.890625 -46.316406 35.003906 -45.742188 35.546875 -44.640625 C 36.085938 -43.535156 36.144531 -42.300781 35.71875 -40.9375 C 35.300781 -39.570312 34.476562 -38.285156 33.25 -37.078125 C 32.03125 -35.878906 30.5 -35.140625 28.65625 -34.859375 C 26.289062 -34.171875 24.847656 -33.707031 24.328125 -33.46875 C 23.316406 -32.988281 22.59375 -32.347656 22.15625 -31.546875 C 21.59375 -30.660156 21.066406 -29.816406 20.578125 -29.015625 C 20.097656 -28.210938 19.757812 -27.347656 19.5625 -26.421875 L 19.328125 -25.109375 C 20.085938 -24.742188 21.019531 -24.628906 22.125 -24.765625 C 23.226562 -24.910156 24.25 -25.050781 25.1875 -25.1875 C 26.132812 -25.332031 26.898438 -25.34375 27.484375 -25.21875 C 28.066406 -25.101562 28.1875 -24.515625 27.84375 -23.453125 C 27.5 -22.390625 26.875 -21.191406 25.96875 -19.859375 C 25.070312 -18.535156 23.800781 -17.578125 22.15625 -16.984375 C 21.113281 -16.773438 20.398438 -16.617188 20.015625 -16.515625 C 19.640625 -16.421875 19.347656 -16.351562 19.140625 -16.3125 C 18.859375 -16.269531 18.054688 -16.210938 16.734375 -16.140625 C 14.847656 -12.921875 13.707031 -10.429688 13.3125 -8.671875 C 13.144531 -7.941406 13.242188 -7.578125 13.609375 -7.578125 Z M 13.609375 -7.578125 "/></g></g></g><g fill="rgb(81.17981%, 13.328552%, 14.118958%)" fill-opacity="1"><g transform="translate(241.217459, 118.875571)"><g><path d="M 10.53125 0.1875 C 10.175781 1.789062 8.929688 2.769531 6.796875 3.125 C 4.835938 3.488281 2.972656 3.269531 1.203125 2.46875 C -0.765625 1.625 -1.628906 0.441406 -1.390625 -1.078125 C -1.628906 -3.410156 -0.40625 -8.46875 2.28125 -16.25 C 6.300781 -27.9375 10.316406 -36.285156 14.328125 -41.296875 C 15.367188 -42.578125 16.257812 -43.410156 17 -43.796875 C 17.75 -44.179688 18.601562 -44.53125 19.5625 -44.84375 C 20.53125 -45.164062 21.535156 -45.46875 22.578125 -45.75 C 24.660156 -46.3125 26.632812 -46.703125 28.5 -46.921875 C 30.375 -47.148438 32.050781 -46.929688 33.53125 -46.265625 C 35.019531 -45.597656 36.175781 -44.625 37 -43.34375 C 37.820312 -42.0625 38.332031 -40.546875 38.53125 -38.796875 C 38.726562 -37.054688 38.664062 -35.234375 38.34375 -33.328125 C 38.03125 -31.421875 37.453125 -29.492188 36.609375 -27.546875 C 35.765625 -25.597656 34.695312 -23.78125 33.40625 -22.09375 C 30.601562 -18.40625 27.316406 -16.019531 23.546875 -14.9375 L 24.140625 -13.90625 C 24.660156 -13.101562 25.289062 -12.21875 26.03125 -11.25 C 26.78125 -10.289062 27.523438 -9.304688 28.265625 -8.296875 C 29.003906 -7.296875 29.675781 -6.296875 30.28125 -5.296875 C 30.882812 -4.296875 31.328125 -3.351562 31.609375 -2.46875 C 32.242188 -0.5 31.738281 0.925781 30.09375 1.8125 C 28.769531 2.613281 27.726562 2.8125 26.96875 2.40625 C 26.644531 2.207031 26.320312 1.957031 26 1.65625 C 25.6875 1.351562 25.25 1.101562 24.6875 0.90625 C 22.3125 1.582031 20.503906 0.976562 19.265625 -0.90625 C 18.503906 -2.101562 17.921875 -3.203125 17.515625 -4.203125 C 17.117188 -5.210938 16.78125 -6.0625 16.5 -6.75 C 15.769531 -8.226562 14.945312 -9.507812 14.03125 -10.59375 C 13.582031 -9.507812 13.078125 -8.125 12.515625 -6.4375 C 11.835938 -4.3125 11.078125 -2.101562 10.234375 0.1875 Z M 22.703125 -34.859375 C 21.929688 -33.128906 21.40625 -31.925781 21.125 -31.25 C 20.5625 -29.882812 19.941406 -28.378906 19.265625 -26.734375 C 19.140625 -25.847656 19.039062 -25.222656 18.96875 -24.859375 L 19.8125 -25.703125 L 20.828125 -26.1875 C 21.546875 -26.59375 22.207031 -26.953125 22.8125 -27.265625 C 23.414062 -27.585938 23.957031 -27.988281 24.4375 -28.46875 C 25.363281 -29.394531 26.164062 -30.898438 26.84375 -32.984375 C 26.84375 -33.390625 26.910156 -33.789062 27.046875 -34.1875 C 27.191406 -34.59375 27.285156 -35 27.328125 -35.40625 C 27.492188 -36.28125 27.132812 -36.898438 26.25 -37.265625 C 25.445312 -37.347656 24.441406 -36.6875 23.234375 -35.28125 C 22.992188 -35 22.816406 -34.859375 22.703125 -34.859375 Z M 22.703125 -34.859375 "/></g></g></g><g fill="rgb(96.859741%, 87.449646%, 0%)" fill-opacity="1"><g transform="translate(30.621349, 203.2487)"><g><path d="M 13.5 -16.0625 C 13.226562 -13.394531 12.925781 -10.820312 12.59375 -8.34375 C 12.269531 -5.863281 11.957031 -3.960938 11.65625 -2.640625 C 11.363281 -1.328125 11.050781 -0.398438 10.71875 0.140625 C 10.382812 0.691406 10.003906 1.097656 9.578125 1.359375 C 9.160156 1.628906 8.722656 1.804688 8.265625 1.890625 C 7.804688 1.972656 7.332031 2.054688 6.84375 2.140625 C 4.101562 2.378906 2.828125 0.671875 3.015625 -2.984375 C 3.023438 -5.847656 3.023438 -8.179688 3.015625 -9.984375 C 3.015625 -11.796875 3.015625 -13.289062 3.015625 -14.46875 C 3.015625 -15.644531 3.019531 -16.625 3.03125 -17.40625 C 3.039062 -18.195312 3.066406 -18.976562 3.109375 -19.75 C 3.160156 -20.53125 3.238281 -21.414062 3.34375 -22.40625 C 3.445312 -23.394531 3.585938 -24.710938 3.765625 -26.359375 C 2.609375 -25.910156 1.507812 -25.773438 0.46875 -25.953125 C -1.0625 -26.210938 -1.941406 -27.363281 -2.171875 -29.40625 C -2.253906 -30.34375 -1.960938 -31.3125 -1.296875 -32.3125 C -0.960938 -32.820312 -0.554688 -33.390625 -0.078125 -34.015625 C 0.910156 -35.273438 3.09375 -36.898438 6.46875 -38.890625 C 9.976562 -40.929688 13.085938 -42.242188 15.796875 -42.828125 C 16.492188 -43.128906 17.257812 -43.222656 18.09375 -43.109375 C 18.9375 -42.992188 19.65625 -42.738281 20.25 -42.34375 C 20.851562 -41.957031 21.234375 -41.46875 21.390625 -40.875 C 21.546875 -40.289062 21.289062 -39.671875 20.625 -39.015625 C 20.300781 -38.671875 20.128906 -38.1875 20.109375 -37.5625 C 20.097656 -36.9375 20.078125 -36.28125 20.046875 -35.59375 C 20.015625 -34.90625 19.882812 -34.25 19.65625 -33.625 C 19.425781 -33 18.925781 -32.550781 18.15625 -32.28125 C 17.800781 -31.945312 17.265625 -31.644531 16.546875 -31.375 C 15.828125 -31.113281 15.351562 -30.925781 15.125 -30.8125 C 14.90625 -30.707031 14.796875 -30.585938 14.796875 -30.453125 C 14.628906 -28.660156 14.4375 -26.484375 14.21875 -23.921875 C 14.007812 -21.359375 13.769531 -18.738281 13.5 -16.0625 Z M 4.125 -26.984375 C 4.0625 -26.972656 4.03125 -26.957031 4.03125 -26.9375 C 4.03125 -26.925781 4.0625 -26.925781 4.125 -26.9375 Z M 4.125 -26.984375 "/></g></g></g><g fill="rgb(96.859741%, 87.449646%, 0%)" fill-opacity="1"><g transform="translate(53.515975, 197.67413)"><g><path d="M 19.90625 -37.5 C 21.09375 -37.132812 21.9375 -36.425781 22.4375 -35.375 C 22.519531 -31.6875 22.65625 -28.039062 22.84375 -24.4375 C 23.03125 -20.832031 23.113281 -17.800781 23.09375 -15.34375 C 23.082031 -12.882812 23.109375 -11.050781 23.171875 -9.84375 C 23.234375 -8.632812 23.273438 -7.421875 23.296875 -6.203125 L 23.203125 -5.140625 C 23.210938 -4.785156 23.210938 -4.453125 23.203125 -4.140625 C 23.203125 -3.828125 23.203125 -3.492188 23.203125 -3.140625 C 22.515625 -1.953125 21.410156 -1.207031 19.890625 -0.90625 C 18.273438 -0.582031 16.914062 -0.734375 15.8125 -1.359375 C 15.144531 -1.691406 14.859375 -2.609375 14.953125 -4.109375 C 15.003906 -4.710938 14.960938 -5.46875 14.828125 -6.375 C 14.703125 -7.289062 14.601562 -8.054688 14.53125 -8.671875 L 14.515625 -8.765625 C 13.640625 -8.234375 12.875 -7.613281 12.21875 -6.90625 C 11.570312 -6.207031 11.164062 -5.765625 11 -5.578125 C 10.84375 -5.398438 10.613281 -5.238281 10.3125 -5.09375 C 10.007812 -4.945312 9.734375 -4.835938 9.484375 -4.765625 C 8.890625 -4.609375 8.5 -4.425781 8.3125 -4.21875 C 7.113281 -0.5625 5.828125 1.601562 4.453125 2.28125 C 3.585938 2.757812 2.679688 3.015625 1.734375 3.046875 C 0.785156 3.085938 -0.046875 2.6875 -0.765625 1.84375 C -1.984375 1.082031 -2.253906 -1.570312 -1.578125 -6.125 C -1.191406 -8.539062 -0.546875 -11.476562 0.359375 -14.9375 C 1.273438 -18.394531 2.210938 -21.4375 3.171875 -24.0625 C 5.253906 -29.71875 7.789062 -34.640625 10.78125 -38.828125 C 11.332031 -39.203125 11.921875 -39.625 12.546875 -40.09375 C 13.179688 -40.5625 13.832031 -40.878906 14.5 -41.046875 C 15.175781 -41.210938 15.898438 -41.273438 16.671875 -41.234375 C 17.453125 -41.191406 18.128906 -41.03125 18.703125 -40.75 C 20.054688 -40.09375 20.457031 -39.007812 19.90625 -37.5 Z M 12.203125 -22.9375 C 11.910156 -20.90625 11.59375 -19.019531 11.25 -17.28125 C 10.90625 -15.550781 10.609375 -14.035156 10.359375 -12.734375 L 14.09375 -13.640625 C 13.945312 -15.710938 13.832031 -17.78125 13.75 -19.84375 C 13.664062 -21.914062 13.570312 -23.972656 13.46875 -26.015625 Z M 12.796875 -13.171875 C 13.253906 -13.253906 13.695312 -13.378906 14.125 -13.546875 L 14.109375 -13.59375 C 13.710938 -13.476562 13.34375 -13.367188 13 -13.265625 C 12.65625 -13.160156 12.585938 -13.128906 12.796875 -13.171875 Z M 12.796875 -13.171875 "/></g></g></g><g fill="rgb(96.859741%, 87.449646%, 0%)" fill-opacity="1"><g transform="translate(79.537671, 192.491391)"><g><path d="M 8.390625 1.546875 C 6.765625 1.859375 5.238281 1.890625 3.8125 1.640625 C 2.382812 1.390625 1.1875 0.929688 0.21875 0.265625 C -0.75 -0.398438 -1.429688 -1.25 -1.828125 -2.28125 C -2.222656 -3.320312 -2.195312 -4.453125 -1.75 -5.671875 C -1.125 -7.140625 0.472656 -7.796875 3.046875 -7.640625 C 4.984375 -7.546875 6.3125 -7.535156 7.03125 -7.609375 C 7.757812 -7.691406 8.359375 -7.882812 8.828125 -8.1875 C 11.054688 -9.3125 12.238281 -10.347656 12.375 -11.296875 C 12.46875 -11.992188 11.929688 -12.707031 10.765625 -13.4375 C 10.296875 -13.757812 9.773438 -14.070312 9.203125 -14.375 C 8.640625 -14.6875 8.144531 -15.003906 7.71875 -15.328125 C 5.945312 -16.265625 4.484375 -17.4375 3.328125 -18.84375 C 2.179688 -20.257812 1.546875 -21.890625 1.421875 -23.734375 C 1.304688 -25.578125 1.378906 -27.132812 1.640625 -28.40625 C 1.898438 -29.675781 2.289062 -30.828125 2.8125 -31.859375 C 3.75 -33.671875 5.082031 -35.234375 6.8125 -36.546875 C 8.800781 -37.992188 10.429688 -38.976562 11.703125 -39.5 C 14.203125 -40.476562 16.816406 -40.929688 19.546875 -40.859375 C 20.460938 -40.835938 21.273438 -40.648438 21.984375 -40.296875 C 22.691406 -39.953125 23.40625 -39.59375 24.125 -39.21875 C 25.40625 -38.28125 25.847656 -37.1875 25.453125 -35.9375 C 25.304688 -35.394531 25.019531 -34.925781 24.59375 -34.53125 C 24.164062 -34.132812 23.679688 -33.878906 23.140625 -33.765625 C 23.335938 -32.910156 23.273438 -32.25 22.953125 -31.78125 C 22.335938 -30.925781 21.132812 -30.25 19.34375 -29.75 C 16.695312 -29.53125 14.945312 -29.109375 14.09375 -28.484375 C 13.09375 -27.742188 12.890625 -26.4375 13.484375 -24.5625 C 13.609375 -24.15625 13.9375 -23.765625 14.46875 -23.390625 C 15 -23.015625 15.613281 -22.617188 16.3125 -22.203125 C 17.019531 -21.785156 17.765625 -21.3125 18.546875 -20.78125 C 19.328125 -20.25 20.039062 -19.601562 20.6875 -18.84375 C 22.925781 -16.195312 23.316406 -12.742188 21.859375 -8.484375 C 20.773438 -5.304688 18.492188 -2.691406 15.015625 -0.640625 C 13.222656 0.410156 11.015625 1.140625 8.390625 1.546875 Z M 8.390625 1.546875 "/></g></g></g><g fill="rgb(96.859741%, 87.449646%, 0%)" fill-opacity="1"><g transform="translate(105.168218, 188.491966)"><g><path d="M 4.890625 -35.203125 C 5.335938 -36.742188 6.144531 -37.363281 7.3125 -37.0625 C 7.539062 -37.8125 7.765625 -38.296875 7.984375 -38.515625 C 8.210938 -38.734375 8.453125 -38.910156 8.703125 -39.046875 C 8.953125 -39.191406 9.207031 -39.34375 9.46875 -39.5 C 9.738281 -39.65625 10.175781 -39.816406 10.78125 -39.984375 C 11.382812 -40.148438 12.054688 -40.28125 12.796875 -40.375 C 13.535156 -40.476562 14.285156 -40.519531 15.046875 -40.5 C 15.816406 -40.488281 16.476562 -40.347656 17.03125 -40.078125 C 18.363281 -39.492188 18.769531 -38.34375 18.25 -36.625 C 18.300781 -36.664062 18.28125 -36.632812 18.1875 -36.53125 L 17.859375 -35.65625 L 17.578125 -35.171875 C 17.429688 -34.992188 17.039062 -33.957031 16.40625 -32.0625 C 15.875 -30.707031 15.320312 -29.363281 14.75 -28.03125 C 13.832031 -25.75 13.28125 -24.285156 13.09375 -23.640625 C 14.144531 -24.378906 15.347656 -25.410156 16.703125 -26.734375 C 19.265625 -29.191406 20.90625 -30.675781 21.625 -31.1875 C 22.351562 -31.695312 22.863281 -32.007812 23.15625 -32.125 C 23.445312 -32.25 23.738281 -32.304688 24.03125 -32.296875 C 24.332031 -32.296875 24.648438 -32.25 24.984375 -32.15625 L 26.234375 -31.796875 C 27.035156 -31.628906 27.554688 -30.742188 27.796875 -29.140625 C 28.003906 -27.566406 27.816406 -26.34375 27.234375 -25.46875 C 24.734375 -21.351562 21.722656 -18.441406 18.203125 -16.734375 C 17.117188 -16.203125 16 -15.726562 14.84375 -15.3125 C 16.570312 -15.300781 18.320312 -14.351562 20.09375 -12.46875 C 21.53125 -10.9375 22.625 -9.316406 23.375 -7.609375 C 24.132812 -5.910156 24.722656 -4.648438 25.140625 -3.828125 C 25.566406 -3.015625 25.78125 -2.367188 25.78125 -1.890625 C 25.78125 -1.421875 25.546875 -1.039062 25.078125 -0.75 C 24.609375 -0.457031 23.785156 -0.128906 22.609375 0.234375 C 22.078125 0.390625 20.890625 -0.125 19.046875 -1.3125 C 18.222656 -1.84375 17.351562 -2.425781 16.4375 -3.0625 C 15.53125 -3.695312 14.617188 -4.289062 13.703125 -4.84375 C 11.617188 -6.132812 10.1875 -6.769531 9.40625 -6.75 C 9.332031 -6.738281 9.195312 -6.753906 9 -6.796875 L 8.390625 -4.546875 C 8.046875 -3.421875 7.703125 -2.25 7.359375 -1.03125 C 7.023438 0.1875 6.59375 1.296875 6.0625 2.296875 C 5.132812 3.085938 4.007812 3.492188 2.6875 3.515625 C 1.15625 3.523438 0.0859375 3.019531 -0.515625 2 C -0.953125 1.050781 -0.742188 -1.925781 0.109375 -6.9375 C 0.660156 -10.445312 1.128906 -13.519531 1.515625 -16.15625 C 1.910156 -18.800781 2.253906 -20.992188 2.546875 -22.734375 C 2.847656 -24.484375 3.054688 -25.84375 3.171875 -26.8125 C 3.296875 -27.78125 3.421875 -28.734375 3.546875 -29.671875 C 3.859375 -31.816406 4.304688 -33.660156 4.890625 -35.203125 Z M 4.890625 -35.203125 "/></g></g></g><g fill="rgb(96.859741%, 87.449646%, 0%)" fill-opacity="1"><g transform="translate(146.776668, 184.284253)"><g><path d="M 17.703125 -36.09375 C 18.054688 -35.226562 18.253906 -34.65625 18.296875 -34.375 C 18.378906 -33.757812 18.171875 -33.234375 17.671875 -32.796875 C 17.671875 -32.765625 17.640625 -32.722656 17.578125 -32.671875 C 17.929688 -31.160156 18.050781 -29.738281 17.9375 -28.40625 C 17.832031 -27.070312 17.671875 -25.785156 17.453125 -24.546875 C 19.085938 -27.585938 20.394531 -29.820312 21.375 -31.25 C 23.40625 -34.195312 25.316406 -36.316406 27.109375 -37.609375 C 27.710938 -38.003906 28.453125 -38.304688 29.328125 -38.515625 C 30.210938 -38.722656 31.054688 -38.773438 31.859375 -38.671875 C 32.671875 -38.578125 33.351562 -38.28125 33.90625 -37.78125 C 34.457031 -37.289062 34.722656 -36.523438 34.703125 -35.484375 C 34.035156 -29.148438 33.289062 -23.242188 32.46875 -17.765625 C 31.65625 -12.285156 30.515625 -7.039062 29.046875 -2.03125 L 29.046875 -1.9375 L 29 -1.9375 C 28.65625 -0.75 27.71875 0.113281 26.1875 0.65625 C 24.6875 1.164062 23.328125 1.25 22.109375 0.90625 C 20.648438 0.539062 19.960938 -0.207031 20.046875 -1.34375 L 20.046875 -2.5625 C 20.140625 -3.332031 20.191406 -3.859375 20.203125 -4.140625 C 20.210938 -4.421875 20.226562 -4.628906 20.25 -4.765625 C 20.28125 -5.597656 20.382812 -6.378906 20.5625 -7.109375 C 20.75 -7.847656 20.882812 -8.445312 20.96875 -8.90625 C 21.050781 -9.363281 21.128906 -9.796875 21.203125 -10.203125 C 21.285156 -10.609375 21.34375 -10.925781 21.375 -11.15625 C 20.207031 -9.425781 19.367188 -8.378906 18.859375 -8.015625 C 17.609375 -7.054688 16.117188 -6.578125 14.390625 -6.578125 C 13.328125 -6.597656 12.707031 -6.8125 12.53125 -7.21875 C 12.164062 -8.113281 11.921875 -8.640625 11.796875 -8.796875 C 11.585938 -9.054688 11.410156 -9.488281 11.265625 -10.09375 C 10.566406 -6.34375 9.847656 -3.675781 9.109375 -2.09375 C 8.804688 -1.46875 8.5 -0.90625 8.1875 -0.40625 C 7.78125 0.675781 6.773438 1.460938 5.171875 1.953125 C 3.671875 2.421875 2.210938 2.4375 0.796875 2 C -0.640625 1.601562 -1.347656 0.820312 -1.328125 -0.34375 C -1.304688 -1.507812 -1.125 -2.976562 -0.78125 -4.75 C -0.445312 -6.53125 -0.0390625 -8.414062 0.4375 -10.40625 C 1.84375 -16.695312 2.851562 -20.789062 3.46875 -22.6875 C 4.09375 -24.59375 4.628906 -26.09375 5.078125 -27.1875 C 6.148438 -29.71875 7.117188 -31.554688 7.984375 -32.703125 C 8.898438 -34.785156 10.507812 -36.082031 12.8125 -36.59375 C 14.644531 -37.019531 16.273438 -36.851562 17.703125 -36.09375 Z M 17.703125 -36.09375 "/></g></g></g><g fill="rgb(96.859741%, 87.449646%, 0%)" fill-opacity="1"><g transform="translate(179.343899, 183.098296)"><g><path d="M 27.15625 -32.625 C 28.238281 -32.03125 28.921875 -31.164062 29.203125 -30.03125 C 28.523438 -26.40625 27.910156 -22.804688 27.359375 -19.234375 C 26.804688 -15.671875 26.269531 -12.6875 25.75 -10.28125 C 25.238281 -7.882812 24.890625 -6.085938 24.703125 -4.890625 C 24.515625 -3.691406 24.304688 -2.5 24.078125 -1.3125 L 23.765625 -0.296875 C 23.703125 0.0546875 23.632812 0.382812 23.5625 0.6875 C 23.488281 1 23.421875 1.332031 23.359375 1.6875 C 22.441406 2.707031 21.207031 3.210938 19.65625 3.203125 C 18.007812 3.179688 16.707031 2.75 15.75 1.90625 C 15.164062 1.4375 15.078125 0.484375 15.484375 -0.953125 C 15.648438 -1.535156 15.757812 -2.285156 15.8125 -3.203125 C 15.875 -4.128906 15.941406 -4.898438 16.015625 -5.515625 L 16.015625 -5.609375 C 15.035156 -5.265625 14.15625 -4.8125 13.375 -4.25 C 12.59375 -3.695312 12.101562 -3.347656 11.90625 -3.203125 C 11.71875 -3.066406 11.460938 -2.957031 11.140625 -2.875 C 10.816406 -2.789062 10.523438 -2.734375 10.265625 -2.703125 C 9.648438 -2.679688 9.226562 -2.585938 9 -2.421875 C 7.082031 0.910156 5.378906 2.769531 3.890625 3.15625 C 2.953125 3.4375 2.015625 3.5 1.078125 3.34375 C 0.140625 3.1875 -0.59375 2.617188 -1.125 1.640625 C -2.15625 0.648438 -1.875 -2 -0.28125 -6.3125 C 0.582031 -8.59375 1.8125 -11.332031 3.40625 -14.53125 C 5.007812 -17.738281 6.554688 -20.53125 8.046875 -22.90625 C 11.234375 -28.019531 14.71875 -32.316406 18.5 -35.796875 C 19.113281 -36.054688 19.773438 -36.347656 20.484375 -36.671875 C 21.203125 -37.003906 21.910156 -37.179688 22.609375 -37.203125 C 23.304688 -37.234375 24.023438 -37.148438 24.765625 -36.953125 C 25.515625 -36.753906 26.140625 -36.457031 26.640625 -36.0625 C 27.828125 -35.144531 28 -34 27.15625 -32.625 Z M 16.640625 -19.96875 C 15.941406 -18.03125 15.242188 -16.242188 14.546875 -14.609375 C 13.859375 -12.984375 13.265625 -11.5625 12.765625 -10.34375 L 16.59375 -10.453125 C 16.875 -12.515625 17.1875 -14.566406 17.53125 -16.609375 C 17.875 -18.648438 18.203125 -20.679688 18.515625 -22.703125 Z M 15.234375 -10.265625 C 15.691406 -10.265625 16.144531 -10.296875 16.59375 -10.359375 L 16.59375 -10.40625 C 16.175781 -10.382812 15.789062 -10.359375 15.4375 -10.328125 C 15.082031 -10.296875 15.015625 -10.273438 15.234375 -10.265625 Z M 15.234375 -10.265625 "/></g></g></g><g fill="rgb(96.859741%, 87.449646%, 0%)" fill-opacity="1"><g transform="translate(205.820865, 183.306104)"><g><path d="M 4.34375 -18.59375 C 5.101562 -20.726562 5.71875 -22.367188 6.1875 -23.515625 C 6.65625 -24.671875 7.109375 -25.707031 7.546875 -26.625 C 7.984375 -27.539062 8.472656 -28.421875 9.015625 -29.265625 C 9.566406 -30.117188 10.160156 -30.890625 10.796875 -31.578125 C 11.441406 -32.273438 12.117188 -32.8125 12.828125 -33.1875 C 13.535156 -33.570312 14.257812 -33.742188 15 -33.703125 C 15.738281 -33.660156 16.492188 -33.328125 17.265625 -32.703125 C 18.367188 -29.398438 19.035156 -27.191406 19.265625 -26.078125 C 19.566406 -24.453125 19.796875 -22.15625 19.953125 -19.1875 C 20.285156 -19.914062 20.660156 -20.679688 21.078125 -21.484375 C 21.503906 -22.285156 21.914062 -23.09375 22.3125 -23.90625 C 23.4375 -25.988281 24.160156 -27.570312 24.484375 -28.65625 C 25.316406 -30.882812 26.875 -32.5 29.15625 -33.5 C 31.15625 -34.351562 32.984375 -34.554688 34.640625 -34.109375 C 35.304688 -33.941406 35.765625 -33.640625 36.015625 -33.203125 C 36.273438 -32.773438 36.253906 -32.34375 35.953125 -31.90625 C 35.648438 -31.46875 35.53125 -31.046875 35.59375 -30.640625 C 35.65625 -30.234375 35.703125 -29.753906 35.734375 -29.203125 C 35.742188 -27.703125 35.410156 -26.394531 34.734375 -25.28125 C 34.054688 -24.175781 33.34375 -22.796875 32.59375 -21.140625 C 31.851562 -19.484375 31.097656 -17.71875 30.328125 -15.84375 C 29.566406 -13.976562 28.789062 -12.078125 28 -10.140625 C 27.21875 -8.210938 26.453125 -6.460938 25.703125 -4.890625 C 24.097656 -1.253906 22.832031 0.734375 21.90625 1.078125 C 20.632812 1.742188 19.703125 2.125 19.109375 2.21875 C 18.359375 2.3125 17.304688 2.253906 15.953125 2.046875 C 15.128906 1.941406 14.46875 0.820312 13.96875 -1.3125 C 13.675781 -2.46875 13.441406 -4.050781 13.265625 -6.0625 C 12.941406 -9.582031 12.691406 -11.523438 12.515625 -11.890625 C 10.984375 -7.753906 9.921875 -5.148438 9.328125 -4.078125 C 8.742188 -3.015625 8.300781 -2.3125 8 -1.96875 C 7.707031 -1.632812 7.351562 -1.1875 6.9375 -0.625 C 6.4375 0.507812 5.382812 1.304688 3.78125 1.765625 C 2.40625 2.210938 1.175781 2.226562 0.09375 1.8125 C -1.070312 1.351562 -1.382812 0.585938 -0.84375 -0.484375 C -0.28125 -4.328125 1.445312 -10.363281 4.34375 -18.59375 Z M 4.34375 -18.59375 "/></g></g></g><g fill="rgb(96.859741%, 87.449646%, 0%)" fill-opacity="1"><g transform="translate(235.450079, 184.970866)"><g><path d="M 30.015625 -30.015625 C 31.046875 -29.316406 31.648438 -28.390625 31.828125 -27.234375 C 30.816406 -23.691406 29.875 -20.164062 29 -16.65625 C 28.125 -13.15625 27.320312 -10.234375 26.59375 -7.890625 C 25.863281 -5.554688 25.347656 -3.800781 25.046875 -2.625 C 24.753906 -1.445312 24.4375 -0.269531 24.09375 0.90625 L 23.6875 1.875 C 23.59375 2.21875 23.492188 2.539062 23.390625 2.84375 C 23.296875 3.144531 23.203125 3.46875 23.109375 3.8125 C 22.109375 4.738281 20.835938 5.125 19.296875 4.96875 C 17.648438 4.800781 16.390625 4.253906 15.515625 3.328125 C 14.972656 2.816406 14.96875 1.859375 15.5 0.453125 C 15.726562 -0.0976562 15.910156 -0.828125 16.046875 -1.734375 C 16.191406 -2.648438 16.328125 -3.414062 16.453125 -4.03125 L 16.453125 -4.125 C 15.453125 -3.863281 14.535156 -3.492188 13.703125 -3.015625 C 12.878906 -2.535156 12.363281 -2.234375 12.15625 -2.109375 C 11.945312 -1.984375 11.675781 -1.894531 11.34375 -1.84375 C 11.019531 -1.789062 10.726562 -1.765625 10.46875 -1.765625 C 9.851562 -1.796875 9.421875 -1.738281 9.171875 -1.59375 C 6.972656 1.550781 5.113281 3.242188 3.59375 3.484375 C 2.625 3.679688 1.679688 3.660156 0.765625 3.421875 C -0.148438 3.179688 -0.832031 2.550781 -1.28125 1.53125 C -2.207031 0.457031 -1.679688 -2.15625 0.296875 -6.3125 C 1.367188 -8.507812 2.84375 -11.128906 4.71875 -14.171875 C 6.601562 -17.222656 8.394531 -19.851562 10.09375 -22.0625 C 13.738281 -26.875 17.601562 -30.84375 21.6875 -33.96875 C 22.320312 -34.164062 23.007812 -34.394531 23.75 -34.65625 C 24.488281 -34.925781 25.203125 -35.039062 25.890625 -35 C 26.585938 -34.957031 27.300781 -34.800781 28.03125 -34.53125 C 28.757812 -34.269531 29.351562 -33.921875 29.8125 -33.484375 C 30.914062 -32.460938 30.984375 -31.304688 30.015625 -30.015625 Z M 18.390625 -18.359375 C 17.515625 -16.492188 16.660156 -14.78125 15.828125 -13.21875 C 14.992188 -11.664062 14.269531 -10.304688 13.65625 -9.140625 L 17.484375 -8.90625 C 17.941406 -10.925781 18.429688 -12.9375 18.953125 -14.9375 C 19.484375 -16.9375 20 -18.929688 20.5 -20.921875 Z M 16.09375 -8.84375 C 16.550781 -8.800781 17.007812 -8.789062 17.46875 -8.8125 L 17.46875 -8.859375 C 17.050781 -8.867188 16.660156 -8.875 16.296875 -8.875 C 15.941406 -8.875 15.875 -8.863281 16.09375 -8.84375 Z M 16.09375 -8.84375 "/></g></g></g><g fill="rgb(96.859741%, 87.449646%, 0%)" fill-opacity="1"><g transform="translate(261.792392, 187.582275)"><g><path d="M 24.421875 -33.40625 C 29.160156 -33.65625 32.65625 -32.546875 34.90625 -30.078125 C 35.976562 -28.910156 36.570312 -27.351562 36.6875 -25.40625 C 36.800781 -23.457031 36.269531 -21.378906 35.09375 -19.171875 C 34.582031 -18.128906 33.851562 -17.398438 32.90625 -16.984375 C 31.96875 -16.578125 31.035156 -16.398438 30.109375 -16.453125 C 29.191406 -16.503906 28.390625 -16.734375 27.703125 -17.140625 C 27.015625 -17.554688 26.679688 -18.0625 26.703125 -18.65625 L 26.40625 -19.671875 C 25.800781 -20.941406 24.492188 -21.285156 22.484375 -20.703125 C 20.742188 -20.203125 18.925781 -19.160156 17.03125 -17.578125 C 15.007812 -15.878906 13.625 -14.285156 12.875 -12.796875 C 12.039062 -11.160156 11.582031 -10.066406 11.5 -9.515625 C 11.257812 -8.316406 11.53125 -7.171875 12.3125 -6.078125 C 13.539062 -5.003906 14.828125 -4.40625 16.171875 -4.28125 C 17.523438 -4.164062 18.769531 -4.296875 19.90625 -4.671875 C 21.039062 -5.046875 21.992188 -5.515625 22.765625 -6.078125 C 23.535156 -6.648438 23.941406 -7.082031 23.984375 -7.375 C 24.109375 -7.550781 24.234375 -7.726562 24.359375 -7.90625 C 24.492188 -8.082031 24.601562 -8.265625 24.6875 -8.453125 C 24.550781 -8.472656 24.582031 -8.476562 24.78125 -8.46875 C 24.988281 -8.457031 25.039062 -8.453125 24.9375 -8.453125 C 24.832031 -8.453125 24.878906 -8.421875 25.078125 -8.359375 L 25.328125 -8.203125 C 23.554688 -7.023438 22 -6.960938 20.65625 -8.015625 C 20.125 -8.460938 19.664062 -8.914062 19.28125 -9.375 C 18.894531 -9.832031 18.507812 -10.078125 18.125 -10.109375 C 17.46875 -10.597656 17.414062 -11.375 17.96875 -12.4375 C 18.195312 -12.851562 18.554688 -13.226562 19.046875 -13.5625 C 19.546875 -13.90625 20.140625 -14.109375 20.828125 -14.171875 C 24.234375 -15.078125 27.238281 -14.960938 29.84375 -13.828125 C 31.019531 -13.328125 31.765625 -12.550781 32.078125 -11.5 C 32.398438 -10.445312 32.4375 -9.316406 32.1875 -8.109375 C 31.945312 -6.898438 31.503906 -5.707031 30.859375 -4.53125 C 30.210938 -3.351562 29.554688 -2.429688 28.890625 -1.765625 C 28.234375 -1.097656 27.34375 -0.328125 26.21875 0.546875 C 25.09375 1.421875 23.726562 2.226562 22.125 2.96875 C 18.15625 4.78125 14.117188 5.332031 10.015625 4.625 C 4.035156 3.632812 0.859375 0.664062 0.484375 -4.28125 C 0.359375 -5.863281 0.457031 -7.613281 0.78125 -9.53125 C 1.925781 -15.0625 4.359375 -20.015625 8.078125 -24.390625 C 9.847656 -26.484375 12.117188 -28.472656 14.890625 -30.359375 C 16.628906 -31.503906 18.507812 -32.296875 20.53125 -32.734375 C 21.625 -33.003906 22.921875 -33.226562 24.421875 -33.40625 Z M 24.421875 -33.40625 "/></g></g></g><g fill="rgb(96.859741%, 87.449646%, 0%)" fill-opacity="1"><g transform="translate(291.594359, 192.044544)"><g><path d="M 11.921875 -3.90625 C 13.734375 -3.351562 15.085938 -2.988281 15.984375 -2.8125 C 16.890625 -2.644531 18.285156 -2.507812 20.171875 -2.40625 C 20.703125 -2.113281 20.988281 -1.8125 21.03125 -1.5 C 21.082031 -1.195312 21.0625 -0.894531 20.96875 -0.59375 C 20.875 -0.300781 20.832031 -0.0078125 20.84375 0.28125 C 20.851562 0.582031 21.109375 0.878906 21.609375 1.171875 C 21.867188 1.328125 21.898438 1.625 21.703125 2.0625 C 21.503906 2.5 21.148438 2.953125 20.640625 3.421875 C 19.316406 4.566406 17.894531 5.273438 16.375 5.546875 C 13.96875 5.671875 12.101562 5.65625 10.78125 5.5 C 8.59375 5.25 6.265625 4.710938 3.796875 3.890625 C 1.097656 2.835938 -0.0234375 1.421875 0.421875 -0.359375 C 1.710938 -7.035156 4.46875 -13.457031 8.6875 -19.625 C 10.070312 -21.625 11.597656 -23.707031 13.265625 -25.875 C 13.617188 -26.34375 13.882812 -26.890625 14.0625 -27.515625 C 14.238281 -28.140625 14.398438 -28.75 14.546875 -29.34375 C 14.691406 -29.945312 14.890625 -30.46875 15.140625 -30.90625 C 15.390625 -31.351562 15.78125 -31.617188 16.3125 -31.703125 C 23.425781 -33.054688 28.851562 -33.0625 32.59375 -31.71875 C 33.914062 -31.425781 34.707031 -30.800781 34.96875 -29.84375 C 35.226562 -28.882812 35.085938 -27.894531 34.546875 -26.875 C 34.003906 -25.863281 33.148438 -24.976562 31.984375 -24.21875 C 30.828125 -23.46875 29.503906 -23.117188 28.015625 -23.171875 C 26.023438 -22.992188 24.8125 -22.847656 24.375 -22.734375 C 23.5 -22.515625 22.828125 -22.117188 22.359375 -21.546875 C 21.785156 -20.929688 21.242188 -20.34375 20.734375 -19.78125 C 20.222656 -19.226562 19.828125 -18.601562 19.546875 -17.90625 L 19.125 -16.875 C 19.675781 -16.476562 20.398438 -16.25 21.296875 -16.1875 C 22.191406 -16.132812 23.019531 -16.09375 23.78125 -16.0625 C 24.550781 -16.03125 25.15625 -15.921875 25.59375 -15.734375 C 26.039062 -15.546875 26.046875 -15.054688 25.609375 -14.265625 C 25.179688 -13.484375 24.507812 -12.632812 23.59375 -11.71875 C 22.6875 -10.8125 21.53125 -10.25 20.125 -10.03125 C 19.28125 -10.03125 18.695312 -10.019531 18.375 -10 C 18.0625 -9.976562 17.816406 -9.96875 17.640625 -9.96875 C 17.410156 -9.976562 16.765625 -10.054688 15.703125 -10.203125 C 13.722656 -7.941406 12.4375 -6.144531 11.84375 -4.8125 C 11.613281 -4.269531 11.640625 -3.96875 11.921875 -3.90625 Z M 11.921875 -3.90625 "/></g></g></g><g fill="rgb(96.859741%, 87.449646%, 0%)" fill-opacity="1"><g transform="translate(315.754587, 196.683242)"><g><path d="M 8.21875 2.109375 C 7.632812 3.285156 6.476562 3.820312 4.75 3.71875 C 3.144531 3.632812 1.722656 3.113281 0.484375 2.15625 C -0.898438 1.125 -1.351562 0.0390625 -0.875 -1.09375 C -0.632812 -2.976562 1.265625 -6.71875 4.828125 -12.3125 C 10.140625 -20.71875 14.84375 -26.507812 18.9375 -29.6875 C 19.988281 -30.5 20.84375 -30.988281 21.5 -31.15625 C 22.15625 -31.320312 22.890625 -31.4375 23.703125 -31.5 C 24.515625 -31.5625 25.359375 -31.609375 26.234375 -31.640625 C 27.972656 -31.691406 29.59375 -31.628906 31.09375 -31.453125 C 32.601562 -31.285156 33.878906 -30.800781 34.921875 -30 C 35.960938 -29.195312 36.679688 -28.21875 37.078125 -27.0625 C 37.484375 -25.90625 37.601562 -24.625 37.4375 -23.21875 C 37.269531 -21.8125 36.878906 -20.390625 36.265625 -18.953125 C 35.660156 -17.523438 34.84375 -16.125 33.8125 -14.75 C 32.789062 -13.382812 31.625 -12.160156 30.3125 -11.078125 C 27.414062 -8.710938 24.390625 -7.457031 21.234375 -7.3125 L 21.515625 -6.390625 C 21.773438 -5.660156 22.101562 -4.847656 22.5 -3.953125 C 22.90625 -3.066406 23.304688 -2.160156 23.703125 -1.234375 C 24.097656 -0.304688 24.4375 0.601562 24.71875 1.5 C 25 2.394531 25.171875 3.21875 25.234375 3.96875 C 25.359375 5.625 24.695312 6.644531 23.25 7.03125 C 22.070312 7.414062 21.21875 7.378906 20.6875 6.921875 C 20.476562 6.710938 20.273438 6.457031 20.078125 6.15625 C 19.878906 5.851562 19.578125 5.578125 19.171875 5.328125 C 17.191406 5.410156 15.890625 4.59375 15.265625 2.875 C 14.890625 1.789062 14.632812 0.820312 14.5 -0.03125 C 14.375 -0.894531 14.269531 -1.625 14.1875 -2.21875 C 13.894531 -3.5 13.488281 -4.648438 12.96875 -5.671875 C 12.414062 -4.898438 11.765625 -3.910156 11.015625 -2.703125 C 10.085938 -1.171875 9.082031 0.410156 8 2.046875 Z M 24.28125 -23.078125 C 23.375 -21.878906 22.742188 -21.03125 22.390625 -20.53125 C 21.703125 -19.570312 20.929688 -18.507812 20.078125 -17.34375 C 19.828125 -16.675781 19.632812 -16.207031 19.5 -15.9375 L 20.3125 -16.4375 L 21.21875 -16.625 C 21.851562 -16.800781 22.4375 -16.960938 22.96875 -17.109375 C 23.507812 -17.253906 24.007812 -17.46875 24.46875 -17.75 C 25.375 -18.300781 26.28125 -19.332031 27.1875 -20.84375 C 27.257812 -21.15625 27.390625 -21.453125 27.578125 -21.734375 C 27.773438 -22.023438 27.925781 -22.328125 28.03125 -22.640625 C 28.320312 -23.296875 28.148438 -23.851562 27.515625 -24.3125 C 26.910156 -24.53125 26 -24.191406 24.78125 -23.296875 C 24.550781 -23.128906 24.382812 -23.054688 24.28125 -23.078125 Z M 24.28125 -23.078125 "/></g></g></g></svg>